<?xml version="1.0" encoding="UTF-8"?>
<!DOCTYPE svg PUBLIC "-//W3C//DTD SVG 1.1//EN" "http://www.w3.org/Graphics/SVG/1.1/DTD/svg11.dtd">
<svg xmlns="http://www.w3.org/2000/svg" version="1.1" width="96px" height="96px" style="shape-rendering:geometricPrecision; text-rendering:geometricPrecision; image-rendering:optimizeQuality; fill-rule:evenodd; clip-rule:evenodd" xmlns:xlink="http://www.w3.org/1999/xlink">
<g><path style="opacity:0.939" fill="#13c900" d="M 38.5,7.5 C 51.6029,5.35826 63.2695,8.35826 73.5,16.5C 71.7979,19.0367 69.6312,21.0367 67,22.5C 62.2636,19.4206 57.0969,17.4206 51.5,16.5C 51.5,18.8333 51.5,21.1667 51.5,23.5C 67.5793,27.6362 74.0793,37.9695 71,54.5C 68.6196,63.3515 65.1196,63.6848 60.5,55.5C 65.0736,39.5717 59.0736,32.0717 42.5,33C 32.2773,38.2949 29.7773,46.1282 35,56.5C 40.8351,62.7694 47.6684,64.1027 55.5,60.5C 63.9174,66.9513 62.5841,70.618 51.5,71.5C 51.5,73.8333 51.5,76.1667 51.5,78.5C 71.9193,73.5528 80.7526,60.5528 78,39.5C 76.5596,35.4534 74.7263,31.6201 72.5,28C 73.9633,25.3688 75.9633,23.2021 78.5,21.5C 86.8074,31.7317 89.6407,43.3984 87,56.5C 83.4396,71.0608 74.6063,80.8942 60.5,86C 46.1344,89.9573 33.1344,87.4573 21.5,78.5C 22.982,76.5171 24.6487,74.6837 26.5,73C 31.8652,75.2871 37.5319,77.1205 43.5,78.5C 43.5,76.1667 43.5,73.8333 43.5,71.5C 27.4207,67.3638 20.9207,57.0305 24,40.5C 27.2632,31.0672 33.7632,25.4006 43.5,23.5C 43.5,21.1667 43.5,18.8333 43.5,16.5C 23.0807,21.4472 14.2474,34.4472 17,55.5C 18.4404,59.5466 20.2737,63.3799 22.5,67C 21.0367,69.6312 19.0367,71.7979 16.5,73.5C 8.19262,63.2683 5.35929,51.6016 8,38.5C 12.3489,22.3186 22.5156,11.9852 38.5,7.5 Z"/></g>
<g><path style="opacity:0.953" fill="#13c900" d="M 43.5,39.5 C 54.8598,38.71 58.1931,43.5434 53.5,54C 42.9641,57.997 38.4641,54.497 40,43.5C 40.6897,41.6498 41.8564,40.3164 43.5,39.5 Z"/></g>
</svg>
